<svg width="312" height="311" viewBox="0 0 312 311" fill="none" xmlns="http://www.w3.org/2000/svg">
<path d="M125.709 140.523H104.293C105.76 135.677 108.107 131.492 111.188 128.335C117.348 122.021 124.389 121.36 127.176 121.36C132.09 121.36 136.711 123.269 140.158 126.72C143.605 130.171 145.512 134.723 145.512 139.642C145.512 156.454 131.357 172.386 131.284 172.533L138.104 178.627C138.764 177.893 154.68 159.979 154.68 139.715C154.68 132.373 151.819 125.545 146.612 120.406C141.405 115.267 134.511 112.403 127.176 112.403C118.962 112.403 110.748 115.928 104.66 122.095C99.9662 126.867 94.4655 135.383 93.4387 149.553H125.636L125.709 140.523Z" fill="#333333"/>
<path d="M155.707 203.956C143.165 203.956 129.89 198.303 119.255 188.538C110.454 180.389 104.733 170.404 103.047 160.419H93.8054C95.5656 172.9 102.313 185.308 113.021 195.219C125.269 206.599 140.818 213.06 155.707 213.06C185.557 213.06 210.054 189.713 211.667 160.419H202.426C200.886 184.72 180.496 203.956 155.707 203.956Z" fill="#333333"/>
<path d="M156 240.518C108.841 240.518 70.5557 202.414 70.5557 155.573C70.5557 108.733 108.914 70.6284 156 70.6284C203.086 70.6284 241.518 108.659 241.518 155.5C241.518 202.341 203.159 240.518 156 240.518ZM156 61.4511C103.853 61.4511 61.3879 103.667 61.3879 155.5C61.3879 207.333 103.853 249.549 156 249.549C208.147 249.549 250.612 207.333 250.612 155.5C250.612 103.667 208.147 61.4511 156 61.4511Z" fill="#333333"/>
<path d="M165.975 140.449V149.48H210.054V140.449H199.052L211.08 128.482L204.553 122.095L192.598 133.988V116.001H183.43V133.988L171.182 121.874L164.728 128.262L176.976 140.449H165.975Z" fill="#333333"/>
</svg>
